<?xml version="1.0" encoding="UTF-8"?>
<svg version="1.1" xmlns="http://www.w3.org/2000/svg" width="251" height="437">
<path d="M0 0 C82.83 0 165.66 0 251 0 C251 144.21 251 288.42 251 437 C168.17 437 85.34 437 0 437 C0 292.79 0 148.58 0 0 Z " fill="#FDFDFD" transform="translate(0,0)"/>
<path d="M0 0 C9.9 0 19.8 0 30 0 C30 13.86 30 27.72 30 42 C64.32 42 98.64 42 134 42 C134 56.52 134 71.04 134 86 C99.35 86 64.7 86 29 86 C29 112.73 29 139.46 29 167 C63.65 167 98.3 167 134 167 C134 209.24 134 251.48 134 295 C99.68 295 65.36 295 30 295 C30 308.86 30 322.72 30 337 C20.1 337 10.2 337 0 337 C0 323.14 0 309.28 0 295 C-34.98 295 -69.96 295 -106 295 C-106 280.15 -106 265.3 -106 250 C-71.02 250 -36.04 250 0 250 C0 223.27 0 196.54 0 169 C-34.98 169 -69.96 169 -106 169 C-106 127.09 -106 85.18 -106 42 C-71.02 42 -36.04 42 0 42 C0 28.14 0 14.28 0 0 Z " fill="#051A05" transform="translate(111,5)"/>
<path d="M0 0 C34.32 0 68.64 0 104 0 C104 40.26 104 80.52 104 122 C69.68 122 35.36 122 0 122 C0 81.74 0 41.48 0 0 Z " fill="#32CC32" transform="translate(7,50)"/>
<path d="M0 0 C33.33 0 66.66 0 101 0 C101 40.26 101 80.52 101 122 C67.67 122 34.34 122 0 122 C0 81.74 0 41.48 0 0 Z " fill="#32CC32" transform="translate(141,175)"/>
<path d="M0 0 C0 1.98 0 3.96 0 6 C35.31 6 70.62 6 107 6 C107 32.4 107 58.8 107 86 C71.69 86 36.38 86 0 86 C0 87.32 0 88.64 0 90 C-1.32 89.34 -2.64 88.68 -4 88 C-4.06944194 76.96922906 -4.12278172 65.93850993 -4.15543652 54.90756512 C-4.17110742 49.78571044 -4.19237168 44.66400507 -4.22631836 39.54223633 C-4.258861 34.60151002 -4.27684228 29.66092751 -4.28463173 24.72010231 C-4.29018441 22.83299304 -4.30102716 20.94589183 -4.31719017 19.05884361 C-4.33889682 16.42015816 -4.34196978 13.78207059 -4.34057617 11.14331055 C-4.351362 10.3592836 -4.36214783 9.57525665 -4.3732605 8.76747131 C-4.34290218 3.47222534 -4.34290218 3.47222534 -2.54121399 0.99104309 C-1 0 -1 0 0 0 Z " fill="#FEFEFE" transform="translate(4,169)"/>
<path d="M0 0 C8.25 0 16.5 0 25 0 C25 109.23 25 218.46 25 331 C16.75 331 8.5 331 0 331 C0 221.77 0 112.54 0 0 Z " fill="#FAFBF9" transform="translate(113,8)"/>
<path d="M0 0 C34.32 0 68.64 0 104 0 C104 12.87 104 25.74 104 39 C69.68 39 35.36 39 0 39 C0 26.13 0 13.26 0 0 Z " fill="#33CB33" transform="translate(7,258)"/>
<path d="M0 0 C33.33 0 66.66 0 101 0 C101 12.87 101 25.74 101 39 C67.67 39 34.34 39 0 39 C0 26.13 0 13.26 0 0 Z " fill="#32CC31" transform="translate(141,50)"/>
<path d="M0 0 C34.65 0 69.3 0 105 0 C105 42.24 105 84.48 105 128 C70.68 128 36.36 128 1 128 C1 141.86 1 155.72 1 170 C-8.9 170 -18.8 170 -29 170 C-29 169.67 -29 169.34 -29 169 C-19.43 169 -9.86 169 0 169 C0 155.14 0 141.28 0 127 C-0.66 127 -1.32 127 -2 127 C-2.02566863 110.96110824 -1.96397164 94.92491484 -1.81640625 78.88671875 C-1.80662184 77.80921671 -1.79683743 76.73171467 -1.78675652 75.62156105 C-1.73510827 69.95757331 -1.6819871 64.29360157 -1.62768555 58.62963867 C-1.57206504 52.79247257 -1.52211743 46.9552711 -1.47328281 41.11804485 C-1.43443887 36.60143312 -1.39133934 32.08486928 -1.34705925 27.56830788 C-1.32669677 25.41329228 -1.30797381 23.25826054 -1.29092598 21.10321617 C-1.26692192 18.11521519 -1.23688213 15.12733366 -1.20532227 12.1394043 C-1.1995668 11.25282135 -1.19381134 10.3662384 -1.18788147 9.45278931 C-1.14697042 6.06392754 -1.07881936 3.23645809 0 0 Z M1 3 C1 43.26 1 83.52 1 125 C34.33 125 67.66 125 102 125 C102 84.74 102 44.48 102 3 C68.67 3 35.34 3 1 3 Z " fill="#183118" transform="translate(140,172)"/>
<path d="M0 0 C33.33 0 66.66 0 101 0 C101 12.87 101 25.74 101 39 C67.67 39 34.34 39 0 39 C0 26.13 0 13.26 0 0 Z M2 9 C2 18.24 2 27.48 2 37 C14.49957421 37.02254926 26.99913503 37.04091406 39.49872494 37.05181217 C45.30213613 37.05704144 51.10553275 37.06413987 56.90893555 37.07543945 C62.50450853 37.08626678 68.10006745 37.0922765 73.6956501 37.09487724 C75.83558944 37.09673177 77.97552796 37.10035291 80.11546135 37.10573006 C83.10164966 37.11293844 86.08777907 37.11399103 89.07397461 37.11352539 C90.41508804 37.1189183 90.41508804 37.1189183 91.78329468 37.12442017 C95.70541923 37.50994865 95.70541923 37.50994865 99 36 C99.0995443 34.26661436 99.13080346 32.52920917 99.1328125 30.79296875 C99.13410156 29.73142578 99.13539063 28.66988281 99.13671875 27.57617188 C99.13285156 26.45791016 99.12898438 25.33964844 99.125 24.1875 C99.12886719 23.08083984 99.13273437 21.97417969 99.13671875 20.83398438 C99.13542969 19.76857422 99.13414062 18.70316406 99.1328125 17.60546875 C99.13112061 16.13823364 99.13112061 16.13823364 99.12939453 14.64135742 C99.0732752 11.74123314 99.0732752 11.74123314 98 8 C68.96 8 39.92 8 10 8 C10 7.34 10 6.68 10 6 C7.18010841 5.8509288 7.18010841 5.8509288 2 9 Z " fill="#36C936" transform="translate(141,50)"/>
<path d="M0 0 C33.33 0 66.66 0 101 0 C101 40.26 101 80.52 101 122 C67.67 122 34.34 122 0 122 C0 81.74 0 41.48 0 0 Z M2 2 C2 40.94 2 79.88 2 120 C34.01 120 66.02 120 99 120 C99.02908892 100.44238425 99.02908892 100.44238425 99.04882812 80.88476562 C99.05480441 72.90730066 99.06187235 64.92984871 99.07543945 56.95239258 C99.08630973 50.52037493 99.09228564 44.08836959 99.09487724 37.65634346 C99.09672402 35.20317961 99.10033027 32.75001643 99.10573006 30.29685783 C99.11299537 26.85926739 99.11398861 23.42172776 99.11352539 19.98413086 C99.1189183 18.46498329 99.1189183 18.46498329 99.12442017 16.91514587 C99.12235817 15.49975525 99.12235817 15.49975525 99.12025452 14.05577087 C99.12117631 13.24367126 99.1220981 12.43157164 99.12304783 11.59486294 C98.97052178 8.37835597 98.45539392 5.18775746 98 2 C66.32 2 34.64 2 2 2 Z " fill="#48BB4A" transform="translate(141,175)"/>
<path d="M0 0 C0.99 0.495 0.99 0.495 2 1 C2.10649045 32.78063989 1.82384742 64.55861365 1.55461788 96.33774936 C1.49292368 103.6273815 1.43303053 110.91702815 1.37324238 118.20667613 C1.25074246 133.13780027 1.12612617 148.06890601 1 163 C0.67 163 0.34 163 0 163 C0 122.74 0 82.48 0 41 C-34.32 41 -68.64 41 -104 41 C-104 81.26 -104 121.52 -104 163 C-70.01 163 -36.02 163 -1 163 C-1 163.33 -1 163.66 -1 164 C-35.65 164.33 -70.3 164.66 -106 165 C-106 123.09 -106 81.18 -106 38 C-71.02 38 -36.04 38 0 38 C0 25.46 0 12.92 0 0 Z " fill="#022002" transform="translate(111,9)"/>
<path d="M0 0 C0.33 0.66 0.66 1.32 1 2 C1.66 2.33 2.32 2.66 3 3 C2.34 3 1.68 3 1 3 C1 44.91 1 86.82 1 130 C35.98 130 70.96 130 107 130 C107 130.33 107 130.66 107 131 C71.69 131 36.38 131 0 131 C-0.495 128.525 -0.495 128.525 -1 126 C-1.66 126.99 -2.32 127.98 -3 129 C-4.64356668 127.35643332 -4.13650981 125.46511473 -4.14717102 123.19914246 C-4.15432632 122.16019333 -4.16148163 121.1212442 -4.16885376 120.05081177 C-4.17154266 118.90119965 -4.17423157 117.75158752 -4.17700195 116.56713867 C-4.18357315 115.36397507 -4.19014435 114.16081146 -4.19691467 112.92118835 C-4.21328691 109.61115427 -4.22488308 106.30118436 -4.2331202 102.99112487 C-4.23826578 100.92418334 -4.24434174 98.85724634 -4.25063133 96.790308 C-4.2696909 90.326478 -4.28391984 83.86265947 -4.2922433 77.39880675 C-4.30201669 69.93166614 -4.32833525 62.4648219 -4.36874419 54.99778575 C-4.39888616 49.2304446 -4.41371037 43.46318848 -4.41702431 37.69577008 C-4.41937725 34.24926297 -4.4283682 30.80307218 -4.45348549 27.3566494 C-4.48105587 23.51135101 -4.47694092 19.66644358 -4.4699707 15.82104492 C-4.48278076 14.67750549 -4.49559082 13.53396606 -4.50878906 12.35577393 C-4.50184525 11.30836533 -4.49490143 10.26095673 -4.48774719 9.18180847 C-4.49013555 8.27237582 -4.4925239 7.36294317 -4.49498463 6.42595196 C-3.85106761 3.27007263 -2.41028149 2.05124626 0 0 Z " fill="#D9D9D8" transform="translate(4,44)"/>
<path d="M0 0 C34.32 0 68.64 0 104 0 C104 40.26 104 80.52 104 122 C69.68 122 35.36 122 0 122 C0 81.74 0 41.48 0 0 Z M2 2 C2 41.27 2 80.54 2 121 C35.33 121 68.66 121 103 121 C103 81.4 103 41.8 103 1 C87.634375 0.979375 72.26875 0.95875 56.4375 0.9375 C51.59376709 0.928396 46.75003418 0.91929199 41.75952148 0.90991211 C37.40070378 0.90656675 37.40070378 0.90656675 33.04188538 0.90455627 C31.10719065 0.9030252 29.17249685 0.89951751 27.23780823 0.89442444 C24.29971673 0.88707954 21.36168332 0.88609487 18.42358398 0.88647461 C17.56814467 0.8828765 16.71270536 0.87927839 15.83134365 0.87557125 C15.03242734 0.87694875 14.23351103 0.87832624 13.41038513 0.87974548 C12.72364936 0.87882369 12.03691359 0.8779019 11.32936764 0.87695217 C8.20148884 1.042181 5.10075923 1.5570344 2 2 Z " fill="#55B453" transform="translate(7,50)"/>
<path d="M0 0 C34.65 0 69.3 0 105 0 C105 42.24 105 84.48 105 128 C104.67 128 104.34 128 104 128 C103.67 87.08 103.34 46.16 103 4 C69.34 3.67 35.68 3.34 1 3 C1 43.26 1 83.52 1 125 C0.67 125 0.34 125 0 125 C0 83.75 0 42.5 0 0 Z " fill="#1C401C" transform="translate(140,172)"/>
<path d="M0 0 C34.98 0 69.96 0 106 0 C106 0.33 106 0.66 106 1 C104.79810028 1.01030746 103.59620056 1.02061493 102.35787964 1.03123474 C91.02826687 1.12901284 79.69870848 1.23175111 68.36918449 1.33933926 C62.54464454 1.39449137 56.72009949 1.447899 50.89550781 1.49731445 C45.27393417 1.54507179 39.65242025 1.5974186 34.03091812 1.65294075 C31.8867555 1.67331283 29.74257655 1.69203427 27.59838486 1.70907402 C24.59401296 1.73323215 21.58975287 1.76327091 18.58544922 1.79467773 C17.69999924 1.8004332 16.81454926 1.80618866 15.90226746 1.81211853 C15.07784653 1.82190735 14.2534256 1.83169617 13.40402222 1.84178162 C12.33935132 1.85146044 12.33935132 1.85146044 11.25317192 1.8613348 C8.4812992 2.031922 5.73933125 2.54344479 3 3 C2.67 15.87 2.34 28.74 2 42 C36.32 42 70.64 42 106 42 C106 42.99 106 43.98 106 45 C71.02 45 36.04 45 0 45 C0 30.15 0 15.3 0 0 Z " fill="#1D341D" transform="translate(5,255)"/>
<path d="M0 0 C13.74285714 0 13.74285714 0 19 4 C21.96982004 8.45473006 21.51113779 12.77418829 21 18 C19.625 21.1875 19.625 21.1875 18 23 C17.34 23 16.68 23 16 23 C15.01 25.475 15.01 25.475 14 28 C13.67 27.34 13.34 26.68 13 26 C8.71 26 4.42 26 0 26 C0 17.42 0 8.84 0 0 Z " fill="#030303" transform="translate(53,397)"/>
<path d="M0 0 C34.32 0 68.64 0 104 0 C104 12.87 104 25.74 104 39 C69.68 39 35.36 39 0 39 C0 26.13 0 13.26 0 0 Z M2 2 C2 13.55 2 25.1 2 37 C35 37 68 37 102 37 C103.23178021 18.5701984 103.23178021 18.5701984 100 1 C87.81300891 0.97684499 75.62602303 0.95906875 63.43901443 0.94818783 C57.7802986 0.94296594 52.1215978 0.93588082 46.46289062 0.92456055 C41.00346478 0.9137071 35.54405341 0.90771793 30.08461761 0.90512276 C28.00018842 0.90327295 25.91576002 0.89966084 23.83133698 0.89426994 C20.91520974 0.88702697 17.99914257 0.88601045 15.08300781 0.88647461 C14.21841949 0.88287933 13.35383118 0.87928406 12.46304321 0.87557983 C11.66661407 0.8769545 10.87018494 0.87832916 10.04962158 0.87974548 C9.36012043 0.87882369 8.67061928 0.8779019 7.96022415 0.87695217 C5.63173891 0.9636581 5.63173891 0.9636581 2 2 Z " fill="#4BBE4B" transform="translate(7,258)"/>
<path d="M0 0 C33.33 0 66.66 0 101 0 C101 12.87 101 25.74 101 39 C67.67 39 34.34 39 0 39 C0 26.13 0 13.26 0 0 Z M1 2 C0.89914346 4.42493373 0.86027668 6.82075661 0.8671875 9.24609375 C0.86623077 9.97240494 0.86527405 10.69871613 0.86428833 11.44703674 C0.86360656 12.9862578 0.86546063 14.52548171 0.86962891 16.06469727 C0.87496957 18.42405657 0.86968785 20.78322484 0.86328125 23.14257812 C0.86394218 24.63541709 0.86522366 26.12825593 0.8671875 27.62109375 C0.86516327 28.32946884 0.86313904 29.03784393 0.86105347 29.76768494 C0.82335627 33.50873182 0.82335627 33.50873182 2 37 C14.48226834 37.06939664 26.96449107 37.1227586 39.44691277 37.15543652 C45.24250967 37.17111732 51.03797495 37.19239962 56.83349609 37.22631836 C62.42260157 37.25882571 68.01158017 37.2768348 73.60077286 37.28463173 C75.73711267 37.29019078 77.87344525 37.30104565 80.00973129 37.31719017 C82.99345868 37.33884979 85.97665635 37.34197174 88.96044922 37.34057617 C89.85092957 37.351362 90.74140991 37.36214783 91.65887451 37.3732605 C94.35764446 37.39530433 94.35764446 37.39530433 98 37 C100.39629455 33.40555817 100.25781331 30.85138348 100.1953125 26.70703125 C100.1924826 26.00100266 100.18965271 25.29497406 100.18673706 24.56755066 C100.17555464 22.31569367 100.1504542 20.06423648 100.125 17.8125 C100.11496767 16.28451096 100.10584226 14.75651567 100.09765625 13.22851562 C100.07562172 9.48552337 100.04110567 5.74282944 100 2 C96.59874493 0.29937247 92.71793658 0.86208503 88.97631836 0.87060547 C88.04128983 0.86885315 87.10626129 0.86710083 86.14289856 0.86529541 C83.0418616 0.860882 79.94088133 0.86381287 76.83984375 0.8671875 C74.692754 0.86651437 72.54566432 0.86554427 70.39857483 0.86428833 C65.8951851 0.8628121 61.39181517 0.86496375 56.88842773 0.86962891 C51.10195053 0.87532957 45.31551966 0.87204458 39.52904415 0.86605644 C35.09485013 0.86245175 30.6606672 0.86358893 26.22647285 0.86618423 C24.09211789 0.86685358 21.95776194 0.86602482 19.82340813 0.86370468 C16.84700713 0.86117929 13.87068239 0.86501699 10.89428711 0.87060547 C10.00335358 0.86858124 9.11242004 0.86655701 8.19448853 0.86447144 C4.28381589 0.48884709 4.28381589 0.48884709 1 2 Z " fill="#53B251" transform="translate(141,50)"/>
<path d="M0 0 C33.99 0.33 67.98 0.66 103 1 C103 1.33 103 1.66 103 2 C69.67 2 36.34 2 2 2 C2.020625 13.7975 2.04125 25.595 2.0625 37.75 C2.09103428 72.25281291 1.86724044 106.74924957 1.5 141.25 C1.48804218 142.37387619 1.47608437 143.49775238 1.46376419 144.65568542 C1.31646846 158.4372082 1.16192231 172.21864154 1 186 C0.67 186 0.34 186 0 186 C0 124.62 0 63.24 0 0 Z " fill="#020802" transform="translate(138,89)"/>
<path d="M0 0 C1.65 0 3.3 0 5 0 C5 8.25 5 16.5 5 25 C2.69 25 0.38 25 -2 25 C-4.64 20.05 -7.28 15.1 -10 10 C-10.33 15.28 -10.66 20.56 -11 26 C-12.65 26 -14.3 26 -16 26 C-16 17.75 -16 9.5 -16 1 C-13.69 1 -11.38 1 -9 1 C-6.8125 3.5 -6.8125 3.5 -5 7 C-4.44119141 8.07894531 -4.44119141 8.07894531 -3.87109375 9.1796875 C-2.88721163 11.10631382 -1.94049729 13.05182705 -1 15 C-0.67 10.05 -0.34 5.1 0 0 Z " fill="#292929" transform="translate(42,397)"/>
<path d="M0 0 C11 0 11 0 16 2 C17.25 9.625 17.25 9.625 15 13 C14.34 13 13.68 13 13 13 C13 13.66 13 14.32 13 15 C13.66 15 14.32 15 15 15 C17.03435531 18.72965139 18 20.66905042 18 25 C16.35 25 14.7 25 13 25 C12.75765625 24.36191406 12.5153125 23.72382813 12.265625 23.06640625 C11.93046875 22.24011719 11.5953125 21.41382813 11.25 20.5625 C10.92515625 19.73878906 10.6003125 18.91507812 10.265625 18.06640625 C9.03289175 15.51194599 9.03289175 15.51194599 5 15 C5 18.63 5 22.26 5 26 C3.35 26 1.7 26 0 26 C0 17.42 0 8.84 0 0 Z " fill="#171717" transform="translate(180,397)"/>
<path d="M0 0 C1.65 0 3.3 0 5 0 C5.01981934 0.56509277 5.03963867 1.13018555 5.06005859 1.71240234 C5.15518236 4.26707997 5.26491058 6.82092541 5.375 9.375 C5.4059375 10.26445312 5.436875 11.15390625 5.46875 12.0703125 C5.50742188 12.92109375 5.54609375 13.771875 5.5859375 14.6484375 C5.6173584 15.43395996 5.6487793 16.21948242 5.68115234 17.02880859 C5.8399465 19.23002939 5.8399465 19.23002939 8 21 C10.54190002 21.2500773 10.54190002 21.2500773 13 21 C14.54950268 19.45049732 14.21655193 17.90009406 14.31640625 15.74609375 C14.35830078 14.89208984 14.40019531 14.03808594 14.44335938 13.15820312 C14.48267578 12.26037109 14.52199219 11.36253906 14.5625 10.4375 C14.60568359 9.53580078 14.64886719 8.63410156 14.69335938 7.70507812 C14.79978142 5.47021515 14.90179988 3.23523692 15 1 C16.65614657 0.61781233 18.32457024 0.28604898 20 0 C22.14287839 2.14287839 21.1852037 6.84797108 21.1875 9.8125 C21.19974609 10.63298828 21.21199219 11.45347656 21.22460938 12.29882812 C21.22750977 13.49088867 21.22750977 13.49088867 21.23046875 14.70703125 C21.23457764 15.4338208 21.23868652 16.16061035 21.24291992 16.90942383 C20.8246357 20.50919048 19.62338561 22.50129151 16.8125 24.75 C13.25921457 26.32923797 10.85687108 26.41323619 7 26 C3.17343451 24.29930423 1.54782221 22.84495265 0 19 C-0.22705078 16.80175781 -0.22705078 16.80175781 -0.1953125 14.453125 C-0.18886719 13.60878906 -0.18242187 12.76445312 -0.17578125 11.89453125 C-0.15902344 11.02183594 -0.14226562 10.14914062 -0.125 9.25 C-0.11597656 8.36183594 -0.10695312 7.47367187 -0.09765625 6.55859375 C-0.07414577 4.37211942 -0.04128499 2.18619906 0 0 Z " fill="#262626" transform="translate(155,397)"/>
<path d="M0 0 C4.95 0 9.9 0 15 0 C15 1.65 15 3.3 15 5 C12.03 5 9.06 5 6 5 C6 6.65 6 8.3 6 10 C8.31 10 10.62 10 13 10 C13 11.32 13 12.64 13 14 C10.36 14 7.72 14 5 14 C5 16.64 5 19.28 5 22 C7.97 22 10.94 22 14 22 C14.33 23.32 14.66 24.64 15 26 C10.05 26 5.1 26 0 26 C0 17.42 0 8.84 0 0 Z " fill="#2C2C2C" transform="translate(203,397)"/>
<path d="M0 0 C31.02 0 62.04 0 94 0 C94 39.6 94 79.2 94 120 C92.02 119.505 92.02 119.505 90 119 C90.99 119 91.98 119 93 119 C92.505 66.035 92.505 66.035 92 12 C91.34 12.33 90.68 12.66 90 13 C88.875 5.375 88.875 5.375 90 2 C60.3 1.67 30.6 1.34 0 1 C0 0.67 0 0.34 0 0 Z " fill="#41C03F" transform="translate(16,51)"/>
<path d="M0 0 C0 1.98 0 3.96 0 6 C-1.98567708 5.70703125 -3.97135417 5.4140625 -5.95703125 5.12109375 C-8.2025342 4.86095201 -8.2025342 4.86095201 -11 6 C-11 10.29 -11 14.58 -11 19 C-7.04 19 -3.08 19 1 19 C0.67 20.65 0.34 22.3 0 24 C-3.80769973 25.90384986 -7.88416691 25.8558919 -12 25 C-15.61766179 22.33286112 -17.58537702 19.07311489 -18.46484375 14.67578125 C-18.71107719 8.87452148 -17.24342272 4.49269191 -13.3125 0.125 C-9.01010858 -1.96805529 -4.49603046 -1.49867682 0 0 Z " fill="#383838" transform="translate(151,398)"/>
<path d="M0 0 C2.31 0 4.62 0 7 0 C6.67 0.66 6.34 1.32 6 2 C5.34 2 4.68 2 4 2 C-1.3748385 12.749677 2.35333263 25.98669069 2 38 C35.33 38 68.66 38 103 38 C103 25.79 103 13.58 103 1 C103.33 1 103.66 1 104 1 C104 13.54 104 26.08 104 39 C69.68 39 35.36 39 0 39 C0 26.13 0 13.26 0 0 Z " fill="#4EAB52" transform="translate(7,258)"/>
<path d="M0 0 C0.66 0.33 1.32 0.66 2 1 C2 2.32 2 3.64 2 5 C-0.64 4.67 -3.28 4.34 -6 4 C-5.43968727 6.93638223 -5.43968727 6.93638223 -4 10 C-1.06644453 11.80029482 -1.06644453 11.80029482 2 13 C4 15 4 15 4.4375 18.375 C4 22 4 22 2 24.4375 C-2.05280288 26.54833483 -4.45586168 26.36646277 -9 26 C-9.99 25.67 -10.98 25.34 -12 25 C-12 23.35 -12 21.7 -12 20 C-9.03 20.33 -6.06 20.66 -3 21 C-2.67 19.35 -2.34 17.7 -2 16 C-3.36125 15.62875 -3.36125 15.62875 -4.75 15.25 C-8.23073245 13.91125675 -9.91332506 13.08827891 -12 10 C-11.93957505 6.55577787 -11.60093625 4.09582493 -9.9375 1.0625 C-6.67567457 -0.72624298 -3.67717456 -0.2334714 0 0 Z " fill="#1B1B1B" transform="translate(108,397)"/>
<path d="M0 0 C4.62 0 9.24 0 14 0 C14 1.32 14 2.64 14 4 C11.03 4 8.06 4 5 4 C5 6.31 5 8.62 5 11 C7.64 11 10.28 11 13 11 C13 12.32 13 13.64 13 15 C10.36 15 7.72 15 5 15 C5 17.31 5 19.62 5 22 C7.97 22 10.94 22 14 22 C14 22.99 14 23.98 14 25 C9.38 25 4.76 25 0 25 C0 16.75 0 8.5 0 0 Z " fill="#0B0B0B" transform="translate(116,397)"/>
<path d="M0 0 C0.66 0 1.32 0 2 0 C2 13.53 2 27.06 2 41 C10.25 41 18.5 41 27 41 C27 27.8 27 14.6 27 1 C27.66 1 28.32 1 29 1 C29 14.86 29 28.72 29 43 C19.43 43 9.86 43 0 43 C0 28.81 0 14.62 0 0 Z " fill="#030303" transform="translate(111,298)"/>
<path d="M0 0 C9.9 0 19.8 0 30 0 C30 13.86 30 27.72 30 42 C28.515 41.505 28.515 41.505 27 41 C27 28.46 27 15.92 27 3 C18.75 3 10.5 3 2 3 C1.67 3.66 1.34 4.32 1 5 C0.67 3.35 0.34 1.7 0 0 Z " fill="#3F3F3F" transform="translate(111,5)"/>
<path d="M0 0 C0.33 0.99 0.66 1.98 1 3 C1.99 2.67 2.98 2.34 4 2 C5 5 5 5 4 8 C3.59420249 13.03943886 3.63513923 17.41808226 6 22 C4.68 22 3.36 22 2 22 C1.34 22.66 0.68 23.32 0 24 C0 23.01 0 22.02 0 21 C-2.97 21 -5.94 21 -9 21 C-9 18.69 -9 16.38 -9 14 C-6.36 14 -3.72 14 -1 14 C-1 12.68 -1 11.36 -1 10 C-3.64 10 -6.28 10 -9 10 C-9 7.69 -9 5.38 -9 3 C-6.03 3 -3.06 3 0 3 C0 2.01 0 1.02 0 0 Z " fill="#EAEAEA" transform="translate(130,398)"/>
<path d="M0 0 C2.64 0 5.28 0 8 0 C8 0.66 8 1.32 8 2 C8.66 2 9.32 2 10 2 C10.05410687 3.77049689 10.09284119 5.54146849 10.125 7.3125 C10.14820312 8.29863281 10.17140625 9.28476562 10.1953125 10.30078125 C10 13 10 13 8 16 C5.36 16 2.72 16 0 16 C0 10.72 0 5.44 0 0 Z " fill="#FAFAFA" transform="translate(58,402)"/>
<path d="M0 0 C1.65 0 3.3 0 5 0 C5 8.58 5 17.16 5 26 C3.35 26 1.7 26 0 26 C0 17.42 0 8.84 0 0 Z " fill="#1A1A1A" transform="translate(16,397)"/>
<path d="M0 0 C1.65 0 3.3 0 5 0 C5 8.25 5 16.5 5 25 C3.35 25 1.7 25 0 25 C0 16.75 0 8.5 0 0 Z " fill="#131313" transform="translate(78,398)"/>
<path d="M0 0 C3.96 0 7.92 0 12 0 C12 0.33 12 0.66 12 1 C8.37 1 4.74 1 1 1 C1 8.92 1 16.84 1 25 C7.58553975 25.25015173 7.58553975 25.25015173 13 23 C10.36 22.67 7.72 22.34 5 22 C5 21.67 5 21.34 5 21 C7.64 21 10.28 21 13 21 C13.66 17.04 14.32 13.08 15 9 C15.33 9 15.66 9 16 9 C16 11.31 16 13.62 16 16 C17.32 16.33 18.64 16.66 20 17 C20 13.7 20 10.4 20 7 C20.33 7 20.66 7 21 7 C21.5683665 19.01989891 21.5683665 19.01989891 18 23 C17.34 23 16.68 23 16 23 C15.01 25.475 15.01 25.475 14 28 C13.67 27.34 13.34 26.68 13 26 C8.71 26 4.42 26 0 26 C0 17.42 0 8.84 0 0 Z " fill="#3B3B3B" transform="translate(53,397)"/>
<path d="M0 0 C1.32 0.33 2.64 0.66 4 1 C5.05699482 6.28497409 5.05699482 6.28497409 5 9 C3.0625 11.5 3.0625 11.5 1 13 C0.34 12.67 -0.32 12.34 -1 12 C-0.67 11.34 -0.34 10.68 0 10 C-2.31 10.33 -4.62 10.66 -7 11 C-7 8.36 -7 5.72 -7 3 C-5.5459375 2.814375 -5.5459375 2.814375 -4.0625 2.625 C-2.5465625 2.315625 -2.5465625 2.315625 -1 2 C-0.67 1.34 -0.34 0.68 0 0 Z " fill="#181818" transform="translate(192,398)"/>
<path d="M0 0 C2.31 0 4.62 0 7 0 C6.67 0.66 6.34 1.32 6 2 C5.34 2 4.68 2 4 2 C2.44504302 5.10991396 2.75923044 8.43344049 2.68359375 11.8515625 C2.66281265 12.62559418 2.64203156 13.39962585 2.62062073 14.19711304 C2.55516552 16.67298392 2.49625913 19.14896202 2.4375 21.625 C2.39431093 23.30209448 2.35069652 24.97917807 2.30664062 26.65625 C2.19948829 30.77072308 2.09820955 34.88530414 2 39 C1.34 39 0.68 39 0 39 C0 26.13 0 13.26 0 0 Z " fill="#57B355" transform="translate(7,258)"/>
<path d="M0 0 C3.21529643 0.29229968 5.56673619 0.74916306 8.375 2.375 C11.00290025 6.62006964 10.30188629 11.13627638 10 16 C8.68 15.67 7.36 15.34 6 15 C5.67 12.03 5.34 9.06 5 6 C4.34 6 3.68 6 3 6 C3 5.34 3 4.68 3 4 C0.36 4 -2.28 4 -5 4 C-2 2 -2 2 0 2 C0 1.34 0 0.68 0 0 Z " fill="#0D0D0D" transform="translate(63,398)"/>
<path d="M0 0 C0.99 0.33 1.98 0.66 3 1 C3 2.98 3 4.96 3 7 C-1.37934119 6.48041715 -5.68803391 5.94324258 -10 5 C-10 5.66 -10 6.32 -10 7 C-11.32 7.33 -12.64 7.66 -14 8 C-13.12269491 5.29497597 -12.28331029 3.31599994 -10.375 1.1875 C-6.78423782 -0.60788109 -4.00311836 -0.25416625 0 0 Z " fill="#212121" transform="translate(148,397)"/>
<path d="M0 0 C1.98 0 3.96 0 6 0 C5 3 5 3 3 4 C3 10.6 3 17.2 3 24 C2.01 24 1.02 24 0 24 C0 16.08 0 8.16 0 0 Z " fill="#050505" transform="translate(27,398)"/>
<path d="M0 0 C0.99 0 1.98 0 3 0 C3 7.92 3 15.84 3 24 C2.01 23.67 1.02 23.34 0 23 C0 15.41 0 7.82 0 0 Z " fill="#030303" transform="translate(43,398)"/>
<path d="M0 0 C9.57 0 19.14 0 29 0 C28.67 1.32 28.34 2.64 28 4 C28 3.34 28 2.68 28 2 C19.42 2 10.84 2 2 2 C1.67 2.66 1.34 3.32 1 4 C0.67 2.68 0.34 1.36 0 0 Z " fill="#0B0B0B" transform="translate(111,6)"/>
<path d="M0 0 C3.96 0 7.92 0 12 0 C12 0.33 12 0.66 12 1 C8.37 1 4.74 1 1 1 C1 8.92 1 16.84 1 25 C5.95 24.67 10.9 24.34 16 24 C15.01 25.32 14.02 26.64 13 28 C13 27.34 13 26.68 13 26 C8.71 26 4.42 26 0 26 C0 17.42 0 8.84 0 0 Z " fill="#595959" transform="translate(53,397)"/>
<path d="M0 0 C2.97 0 5.94 0 9 0 C8.01 0.495 8.01 0.495 7 1 C7.66 2.98 8.32 4.96 9 7 C6.03 7 3.06 7 0 7 C0 4.69 0 2.38 0 0 Z " fill="#D8D8D8" transform="translate(121,401)"/>
<path d="M0 0 C0.99 0 1.98 0 3 0 C3 5.94 3 11.88 3 18 C2.34 18 1.68 18 1 18 C0.67 18.66 0.34 19.32 0 20 C0 13.4 0 6.8 0 0 Z " fill="#050505" transform="translate(156,398)"/>
<path d="M0 0 C2.97 0.495 2.97 0.495 6 1 C6.625 3.375 6.625 3.375 7 6 C5 8 5 8 2.375 8.125 C1.59125 8.08375 0.8075 8.0425 0 8 C0 5.36 0 2.72 0 0 Z " fill="#D2D2D2" transform="translate(185,401)"/>
<path d="M0 0 C0.66 0 1.32 0 2 0 C1.34 3.63 0.68 7.26 0 11 C-1.32 11.33 -2.64 11.66 -4 12 C-5.38125018 9.23749964 -5.19079306 7.05268901 -5 4 C-4.34 3.34 -3.68 2.68 -3 2 C-2.01 2 -1.02 2 0 2 C0 1.34 0 0.68 0 0 Z " fill="#0A0A0A" transform="translate(138,402)"/>
<path d="M0 0 C0.66 0.33 1.32 0.66 2 1 C3.53668865 1.22467831 5.07968054 1.40796805 6.625 1.5625 C7.44226563 1.64628906 8.25953125 1.73007812 9.1015625 1.81640625 C9.72804687 1.87699219 10.35453125 1.93757813 11 2 C11 2.99 11 3.98 11 5 C7.04 5 3.08 5 -1 5 C-1 2 -1 2 0 0 Z " fill="#060606" transform="translate(119,417)"/>
<path d="M0 0 C1.32 0 2.64 0 4 0 C3.67 1.65 3.34 3.3 3 5 C-0.63 5 -4.26 5 -8 5 C-8 4.34 -8 3.68 -8 3 C-5.29120665 1.64560332 -2.99066732 1.93498549 0 2 C0 1.34 0 0.68 0 0 Z " fill="#1F1F1F" transform="translate(148,417)"/>
<path d="M0 0 C0.33 0 0.66 0 1 0 C1.19738568 3.24947861 1.3811754 6.49958873 1.5625 9.75 C1.61857422 10.67039062 1.67464844 11.59078125 1.73242188 12.5390625 C1.78076172 13.42851562 1.82910156 14.31796875 1.87890625 15.234375 C1.94960327 16.45979004 1.94960327 16.45979004 2.02172852 17.70996094 C2.00020095 19.97882075 1.64612135 21.83320921 1 24 C-0.98 24 -2.96 24 -5 24 C-4 21 -4 21 -1 19 C-0.49378487 16.97723319 -0.49378487 16.97723319 -0.48828125 14.6484375 C-0.43510742 13.37226563 -0.43510742 13.37226563 -0.38085938 12.0703125 C-0.34702148 10.73613281 -0.34702148 10.73613281 -0.3125 9.375 C-0.27833984 8.4778125 -0.24417969 7.580625 -0.20898438 6.65625 C-0.12637598 4.43762462 -0.05727281 2.2194006 0 0 Z " fill="#454545" transform="translate(170,398)"/>
<path d="M0 0 C0.33 0 0.66 0 1 0 C1 3.63 1 7.26 1 11 C1.99 11.33 2.98 11.66 4 12 C4.66 12.33 5.32 12.66 6 13 C6 13.66 6 14.32 6 15 C6.66 15.33 7.32 15.66 8 16 C5.36 16 2.72 16 0 16 C0 10.72 0 5.44 0 0 Z " fill="#D8D8D8" transform="translate(58,402)"/>
<path d="M0 0 C3.0625 0.125 3.0625 0.125 5.0625 1.125 C5.0625 2.445 5.0625 3.765 5.0625 5.125 C2.0925 4.795 -0.8775 4.465 -3.9375 4.125 C-3.9375 0.16755319 -3.9375 0.16755319 0 0 Z " fill="#111111" transform="translate(104.9375,396.875)"/>
<path d="M0 0 C2.05078125 0.03255208 4.1015625 0.06510417 6.15234375 0.09765625 C6.15234375 1.08765625 6.15234375 2.07765625 6.15234375 3.09765625 C3.51234375 3.09765625 0.87234375 3.09765625 -1.84765625 3.09765625 C-1.84765625 5.40765625 -1.84765625 7.71765625 -1.84765625 10.09765625 C-2.17765625 10.09765625 -2.50765625 10.09765625 -2.84765625 10.09765625 C-2.87454841 8.61858733 -2.89400246 7.13938142 -2.91015625 5.66015625 C-2.92175781 4.83644531 -2.93335938 4.01273437 -2.9453125 3.1640625 C-2.8198894 0.51010975 -2.66068535 0.14062819 0 0 Z " fill="#0D0D0D" transform="translate(209.84765625,407.90234375)"/>
<path d="M0 0 C2 1 2 1 3 2 C5.32817964 2.36760731 7.6618385 2.70241581 10 3 C10 3.33 10 3.66 10 4 C2.25 5.125 2.25 5.125 0 4 C0 4.66 0 5.32 0 6 C-1.32 6.33 -2.64 6.66 -4 7 C-2.92598892 4.08482708 -2.22189824 2.22189824 0 0 Z " fill="#3B3B3B" transform="translate(138,398)"/>
<path d="M0 0 C4.62 0 9.24 0 14 0 C14 1.32 14 2.64 14 4 C11.125 4.125 11.125 4.125 8 4 C7.34 3.34 6.68 2.68 6 2 C4.01178687 1.60235737 2.01055661 1.26224651 0 1 C0 0.67 0 0.34 0 0 Z " fill="#3E3E3E" transform="translate(116,397)"/>
<path d="M0 0 C0 3.63 0 7.26 0 11 C-1.72046505 8.7060466 -3.4094295 6.38585576 -5 4 C-4.67 3.01 -4.34 2.02 -4 1 C-2 0 -2 0 0 0 Z " fill="#E7E7E7" transform="translate(42,403)"/>
<path d="M0 0 C2.475 0.99 2.475 0.99 5 2 C5 2.66 5 3.32 5 4 C5.99 4.66 6.98 5.32 8 6 C0.57142857 6.28571429 0.57142857 6.28571429 -3 4 C-2.67 3.34 -2.34 2.68 -2 2 C-1.34 2 -0.68 2 0 2 C0 1.34 0 0.68 0 0 Z " fill="#202020" transform="translate(161,417)"/>
<path d="M0 0 C0.33 0 0.66 0 1 0 C1.05422947 1.4370809 1.09289723 2.87475462 1.125 4.3125 C1.14820313 5.11300781 1.17140625 5.91351563 1.1953125 6.73828125 C1 9 1 9 -1 12 C-1.99 11.67 -2.98 11.34 -4 11 C-4.33 9.35 -4.66 7.7 -5 6 C-3.66666667 6 -2.33333333 6 -1 6 C-0.67 4.02 -0.34 2.04 0 0 Z " fill="#272727" transform="translate(138,406)"/>
<path d="M0 0 C2.475 0.99 2.475 0.99 5 2 C5 2.66 5 3.32 5 4 C7.97 4.495 7.97 4.495 11 5 C11 5.33 11 5.66 11 6 C9.741875 6.020625 8.48375 6.04125 7.1875 6.0625 C6.47980469 6.07410156 5.77210937 6.08570313 5.04296875 6.09765625 C3 6 3 6 0 5 C0 3.35 0 1.7 0 0 Z " fill="#323232" transform="translate(96,417)"/>
<path d="M0 0 C0.66 0.66 1.32 1.32 2 2 C1.67 2.99 1.34 3.98 1 5 C-1.64 5 -4.28 5 -7 5 C-6.67 4.01 -6.34 3.02 -6 2 C-2.9375 0.8125 -2.9375 0.8125 0 0 Z " fill="#070707" transform="translate(107,417)"/>
<path d="M0 0 C0.66 0.33 1.32 0.66 2 1 C1.67 3.31 1.34 5.62 1 8 C0.01 8.33 -0.98 8.66 -2 9 C-3.10102197 5.69693408 -2.95067299 4.28414305 -2 1 C-1.34 0.67 -0.68 0.34 0 0 Z " fill="#0B0B0B" transform="translate(173,412)"/>
<path d="M0 0 C0.99 0.33 1.98 0.66 3 1 C3.042721 2.66611905 3.04063832 4.33382885 3 6 C2 7 2 7 -1.0625 7.0625 C-2.5165625 7.0315625 -2.5165625 7.0315625 -4 7 C-3.34 6.67 -2.68 6.34 -2 6 C-2 5.34 -2 4.68 -2 4 C-1.34 3.34 -0.68 2.68 0 2 C0 1.34 0 0.68 0 0 Z " fill="#D6D6D6" transform="translate(103,412)"/>
<path d="M0 0 C2.97 0 5.94 0 9 0 C9 0.66 9 1.32 9 2 C7.35 2.33 5.7 2.66 4 3 C3.67 3.99 3.34 4.98 3 6 C3 5.01 3 4.02 3 3 C2.34 2.67 1.68 2.34 1 2 C0.67 1.34 0.34 0.68 0 0 Z " fill="#0A0A0A" transform="translate(54,398)"/>
<path d="M0 0 C2.97 0.495 2.97 0.495 6 1 C3.28817788 3.60334924 2.10866187 3.99456691 -1.75 4.1875 C-2.8225 4.125625 -3.895 4.06375 -5 4 C-2 2 -2 2 0 2 C0 1.34 0 0.68 0 0 Z " fill="#272727" transform="translate(63,398)"/>
<path d="M0 0 C-1.485 1.485 -1.485 1.485 -3 3 C-3 2.34 -3 1.68 -3 1 C-7.29 1 -11.58 1 -16 1 C-16 0.67 -16 0.34 -16 0 C-14.08416353 -0.1958009 -12.16727461 -0.38132214 -10.25 -0.5625 C-8.64898437 -0.71912109 -8.64898437 -0.71912109 -7.015625 -0.87890625 C-4.35858796 -0.98560074 -2.50039428 -0.81930395 0 0 Z " fill="#A8A8A8" transform="translate(69,422)"/>
<path d="M0 0 C0.66 0 1.32 0 2 0 C2 0.66 2 1.32 2 2 C2.66 2 3.32 2 4 2 C3.67 3.32 3.34 4.64 3 6 C2.01 6 1.02 6 0 6 C-1.125 2.25 -1.125 2.25 0 0 Z " fill="#E2E2E2" transform="translate(64,402)"/>
<path d="M0 0 C0.33 0 0.66 0 1 0 C1.1875 3.375 1.1875 3.375 1 7 C0.01 7.66 -0.98 8.32 -2 9 C-2.66 8.34 -3.32 7.68 -4 7 C-3.525625 6.5875 -3.05125 6.175 -2.5625 5.75 C-0.83733482 3.817815 -0.43415125 2.51807725 0 0 Z " fill="#373737" transform="translate(111,412)"/>
<path d="M0 0 C0.99 0 1.98 0 3 0 C3.33 0.99 3.66 1.98 4 3 C3.01 3.33 2.02 3.66 1 4 C0.34 4.66 -0.32 5.32 -1 6 C-1.625 4.125 -1.625 4.125 -2 2 C-1.34 1.34 -0.68 0.68 0 0 Z " fill="#292929" transform="translate(192,412)"/>
<path d="M0 0 C0.66 0 1.32 0 2 0 C2.33 2.64 2.66 5.28 3 8 C2.01 8 1.02 8 0 8 C0 5.36 0 2.72 0 0 Z " fill="#0B0B0B" transform="translate(111,333)"/>
<path d="M0 0 C0.99 0 1.98 0 3 0 C3 1.32 3 2.64 3 4 C0.36 4 -2.28 4 -5 4 C-5 3.67 -5 3.34 -5 3 C-3.35 3 -1.7 3 0 3 C0 2.01 0 1.02 0 0 Z " fill="#484848" transform="translate(126,408)"/>
</svg>
